<?xml version="1.0" encoding="utf-8"?>
<!-- Generator: Adobe Illustrator 19.1.0, SVG Export Plug-In . SVG Version: 6.00 Build 0)  -->
<svg xmlns="http://www.w3.org/2000/svg" xmlns:xlink="http://www.w3.org/1999/xlink" version="1.1" id="Layer_1" x="0px" y="0px" viewBox="0 0 64 64" enable-background="new 0 0 64 64" xml:space="preserve" width="512px" height="512px">
<g id="Radar_1_">
	<path d="M28.6660995,47.0008698c0.8125,0,1.6328068-0.0487976,2.4540997-0.1478996l0.75-1.4862976L26.3486996,35.63937   c0.0583-0.0699005,0.1098003-0.1471977,0.1484013-0.2346001l4.0763988-9.2270985   c0.7014065,0.5341988,1.5598011,0.8217983,2.4334049,0.8217983c0.6786957,0,1.3651962-0.1723995,1.9930954-0.5351982   c1.9101982-1.1030006,2.5663986-3.5537014,1.4639053-5.4634018c-0.5332069-0.9251995-1.3965073-1.5868988-2.4287071-1.863699   c-1.031292-0.2754002-2.1103973-0.1348-3.0351982,0.3994007c-1.5907993,0.9186993-2.2943993,2.7704983-1.8540001,4.4677982   l-9.1507988,0.0420017c-0.0722961,0.0001984-0.1358013,0.0272999-0.2034016,0.0418987l-6.0065994-10.5814991l-1.6757994-0.0981007   c-4.9482002,6.7362995-5.4756002,15.7944012-1.3428001,23.076601   C14.4922009,43.0482712,21.3369999,47.0008698,28.6660995,47.0008698z M32,21.2684708   c0.3077011-0.1777,0.6495018-0.2684994,0.9961014-0.2684994c0.1738968,0,0.3486977,0.0228996,0.5214996,0.0692997   c0.5165977,0.1381989,0.9473038,0.4687996,1.2138977,0.9307003v0.0004997C35.2831993,22.955471,34.955101,24.1810703,34,24.7323704   c-0.9570007,0.5513-2.1805992,0.2222004-2.7313995-0.7318993C30.7168007,23.0453701,31.0450001,21.8197708,32,21.2684708z    M28.4619999,26.0072708l-3.3181992,7.5098l-4.2428951-7.4748993L28.4619999,26.0072708z M12.8418007,15.897871   l16.5126991,29.0898991c-6.8652,0.259201-13.3661995-3.3540001-16.8475952-9.4897995   C9.0235004,29.3602715,9.1924009,21.830471,12.8418007,15.897871z" fill="#91DC5A"/>
	<path d="M38.6913986,15.9515705C41.0889053,16.7294712,42.5,19.7943707,41.8379059,22.784071   c-0.1191063,0.5396004,0.2206955,1.0732994,0.7607956,1.1928997c0.0722046,0.0160999,0.1454964,0.0235004,0.2167969,0.0235004   c0.4589996,0,0.8720016-0.3174,0.9756012-0.7837009c0.8778992-3.9682999-1.1329002-8.0805998-4.4824982-9.1674995   c-0.5244026-0.1703997-1.0898018,0.1167002-1.259697,0.6426001C37.8779984,15.2172709,38.1660995,15.7811708,38.6913986,15.9515705   z" fill="#91DC5A"/>
	<path d="M40.7266006,9.9623709c5.232399,1.4842997,8.3418007,7.2235994,6.9335976,12.7928991   c-0.1348,0.5352001,0.1893997,1.0791016,0.7246017,1.2144012c0.0820007,0.0209999,0.1650009,0.0307999,0.2461052,0.0307999   c0.4462929,0,0.8534927-0.3017998,0.9686928-0.7549c1.6709023-6.6084003-2.0643997-13.4302006-8.3260994-15.2071009   c-0.532299-0.1522994-1.0849991,0.1573-1.2353973,0.6890001C39.8876991,9.2587709,40.1954002,9.811471,40.7266006,9.9623709z" fill="#91DC5A"/>
	<path d="M41.7529984,3.9696708c4.7578011,1.2128997,8.6816025,4.1396003,11.047802,8.2406998   c2.2168007,3.8412991,2.7812996,8.2870998,1.5888977,12.5191002c-0.1493988,0.5317001,0.1601028,1.0838985,0.6914024,1.2334003   c0.0908051,0.0257988,0.1825981,0.0379982,0.2724991,0.0379982c0.4365005,0,0.8377991-0.2884998,0.9618988-0.7293987   c1.3388023-4.7549,0.7060013-9.7486-1.782299-14.0606003c-2.6376991-4.5718002-7.0009003-7.8319998-12.2860985-9.1796999   c-0.5351028-0.1377-1.080101,0.187-1.2158012,0.7222002C40.8945999,3.2884707,41.2178001,3.8329706,41.7529984,3.9696708z" fill="#91DC5A"/>
	<path d="M63,60.0004692H22.6487007c-0.8796005-1.9960976-2.1639996-5.274498-3.2189999-7.9692993   c-0.7656002-1.9570007-1.3711014-3.5028992-1.6230011-4.0487976c-0.1337948-0.2891006-0.3223-0.5405006-0.5585995-0.7471008   l-5.3671951-4.6953011c-0.640605-0.5575981-1.515605-0.6968002-2.2891045-0.3613014   c-0.7567997,0.3276024-1.2685003,1.0508003-1.3358955,1.8862L7.0069056,59.5658722   c-0.0117049,0.1455002-0.0071049,0.2910004,0.0087953,0.434597H1.0000008c-0.5527,0-1,0.4477005-1,1c0,0.5522003,0.4473,1,1,1   H9.200201H22h41c0.5527992,0,1-0.4477997,1-1C64,60.4481697,63.5527992,60.0004692,63,60.0004692z M9.200201,60.0004692   c-0.0488005,0-0.0976-0.0234985-0.1328001-0.0634995c-0.0488005-0.0556984,1.1826-15.7123985,1.1826-15.7123985   c0.007905-0.0951996,0.0615997-0.1781998,0.1367998-0.2110023c0.0205002-0.0086975,0.0418997-0.0130997,0.0633993-0.0130997   c0.0401001,0,0.0801001,0.0156021,0.1153002,0.0463028l5.3662004,4.6938972   c0.0243998,0.0220032,0.0448999,0.0498009,0.0594997,0.0810013c0.2265997,0.490799,0.8515997,2.0884018,1.5761995,3.9384995   c0.9278011,2.3711014,2.0361996,5.2012024,2.9013996,7.2402992H9.200201z" fill="#91DC5A"/>
</g>
<g>
</g>
<g>
</g>
<g>
</g>
<g>
</g>
<g>
</g>
<g>
</g>
<g>
</g>
<g>
</g>
<g>
</g>
<g>
</g>
<g>
</g>
<g>
</g>
<g>
</g>
<g>
</g>
<g>
</g>
</svg>
