<?xml version="1.0" encoding="iso-8859-1"?>
<!-- Generator: Adobe Illustrator 16.0.0, SVG Export Plug-In . SVG Version: 6.00 Build 0)  -->
<!DOCTYPE svg PUBLIC "-//W3C//DTD SVG 1.1//EN" "http://www.w3.org/Graphics/SVG/1.1/DTD/svg11.dtd">
<svg xmlns="http://www.w3.org/2000/svg" xmlns:xlink="http://www.w3.org/1999/xlink" version="1.1" id="Capa_1" x="0px" y="0px" width="512px" height="512px" viewBox="0 0 91.836 91.836" style="enable-background:new 0 0 91.836 91.836;" xml:space="preserve">
<g>
	<path d="M64.508,47.204l4.619-3.914L52.311,23.456l-4.618,3.916L24.49,0L4.123,17.264L21.82,38.137   c-1.117,0.176-2.079,0.603-2.866,1.285c-2.282,1.946-2.71,5.604-1.226,10.292c1.233,3.9,3.732,8.207,7.017,12.263l-8.621,7.304   c-1.038-0.406-2.255-0.283-3.163,0.488c-1.312,1.113-1.479,3.084-0.36,4.397c1.114,1.314,3.084,1.483,4.401,0.36   c0.91-0.771,1.224-1.947,0.992-3.038l8.617-7.309c5.861,6.47,12.588,10.611,17.418,10.611c1.643,0,3.016-0.46,4.083-1.373   c0.73-0.627,1.245-1.441,1.597-2.391l17.638,20.809l20.367-17.269L64.508,47.204z M66.506,54.038L50.548,67.561l-0.411-0.493   c-0.1-1.218-0.351-2.518-0.808-3.943c-0.234-0.744-0.57-1.52-0.895-2.295L62.3,49.079L66.506,54.038z M44.028,71.899   c-1.714,0-3.868-0.78-6.176-2.099c-0.371-0.215-0.736-0.425-1.119-0.662c-2.623-1.679-5.379-4.037-7.925-6.825l1.245-1.054   l3.49-2.96l-0.938-1.104l-0.932-1.104l-3.482,2.961l-1.252,1.054c-2.45-3.042-4.386-6.19-5.639-9.174   c-0.123-0.302-0.243-0.603-0.346-0.901c-0.147-0.396-0.345-0.808-0.47-1.199c-1.095-3.455-0.972-6.085,0.351-7.226   c0.525-0.448,1.264-0.677,2.196-0.677c0.401,0,0.84,0.072,1.287,0.152c1.458,0.257,3.121,0.932,4.894,1.946   c0.366,0.212,0.733,0.429,1.114,0.665c0.925,0.588,1.864,1.259,2.805,2.007c0.744,0.591,1.493,1.227,2.23,1.907   c1.313,1.204,2.61,2.512,3.84,3.942c1.255,1.469,2.343,2.97,3.352,4.479c0.553,0.826,1.081,1.651,1.546,2.478   c0.647,1.149,1.2,2.283,1.666,3.398c0.129,0.294,0.241,0.593,0.348,0.89c0.147,0.401,0.343,0.808,0.468,1.195   c0.511,1.608,0.727,3.007,0.712,4.184c-0.017,1.371-0.351,2.437-1.058,3.045C45.704,71.671,44.965,71.899,44.028,71.899z    M31.562,41.043c-1.966-1.215-3.873-2.062-5.639-2.539l-0.593-0.706L41.28,24.274l4.21,4.966L31.562,41.043z M24.158,4.074   l6.223,7.349L14.432,24.944l-6.228-7.349L24.158,4.074z M16.291,27.149l15.958-13.524l7.159,8.445L23.454,35.594L16.291,27.149z    M68.376,56.242l7.158,8.444L59.585,78.213l-7.162-8.449L68.376,56.242z M61.456,80.412L77.405,66.89l6.227,7.35L67.679,87.757   L61.456,80.412z" fill="#91DC5A"/>
</g>
<g>
</g>
<g>
</g>
<g>
</g>
<g>
</g>
<g>
</g>
<g>
</g>
<g>
</g>
<g>
</g>
<g>
</g>
<g>
</g>
<g>
</g>
<g>
</g>
<g>
</g>
<g>
</g>
<g>
</g>
</svg>
