<?xml version="1.0" encoding="UTF-8" standalone="no"?>
<!-- Created with Inkscape (http://www.inkscape.org/) -->

<svg
   xmlns:dc="http://purl.org/dc/elements/1.1/"
   xmlns:cc="http://creativecommons.org/ns#"
   xmlns:rdf="http://www.w3.org/1999/02/22-rdf-syntax-ns#"
   xmlns:svg="http://www.w3.org/2000/svg"
   xmlns="http://www.w3.org/2000/svg"
   xmlns:sodipodi="http://sodipodi.sourceforge.net/DTD/sodipodi-0.dtd"
   xmlns:inkscape="http://www.inkscape.org/namespaces/inkscape"
   version="1.1"
   id="svg2"
   xml:space="preserve"
   width="1308"
   height="488"
   viewBox="0 0 1308 488"
   sodipodi:docname="csu2.svg"
   inkscape:version="0.92.2 (unknown)"><metadata
     id="metadata8"><rdf:RDF><cc:Work
         rdf:about=""><dc:format>image/svg+xml</dc:format><dc:type
           rdf:resource="http://purl.org/dc/dcmitype/StillImage" /><dc:title></dc:title></cc:Work></rdf:RDF></metadata><defs
     id="defs6" /><sodipodi:namedview
     pagecolor="#ffffff"
     bordercolor="#666666"
     borderopacity="1"
     objecttolerance="10"
     gridtolerance="10"
     guidetolerance="10"
     inkscape:pageopacity="0"
     inkscape:pageshadow="2"
     inkscape:window-width="2560"
     inkscape:window-height="1381"
     id="namedview4"
     showgrid="false"
     inkscape:zoom="1.0620001"
     inkscape:cx="592.57677"
     inkscape:cy="396.75502"
     inkscape:window-x="0"
     inkscape:window-y="0"
     inkscape:window-maximized="1"
     inkscape:current-layer="g10" /><g
     id="g10"
     inkscape:groupmode="layer"
     inkscape:label="ink_ext_XXXXXX"
     transform="matrix(1.3333333,0,0,-1.3333333,0,487.99998)"><g
       id="g12"
       transform="matrix(0.1,0,0,0.1,-11,-13.988804)"
       style="fill:#bccd33;fill-opacity:1"><path
         d="m 9340,3788.5 c -19.09,-5.18 -60,-16.32 -90,-24.5 -30,-8.18 -73.18,-20 -95,-26 -22,-6.05 -53.5,-14.82 -70,-19.5 -16.64,-4.71 -79,-19.87 -140,-34.03 -150,-34.81 -187.51,-44.83 -208,-55.56 -9,-4.72 -24.29,-8.91 -32.5,-8.91 -8.55,0 -54.5,-10.54 -102.5,-23.5 -48,-12.96 -111.66,-29.1 -142,-35.99 -98,-22.24 -130,-33.45 -130,-45.51 0,-6.59 91,-99.56 202,-206.37 301,-289.63 301,-289.63 318,-282.72 8.2,3.33 49,14.93 90,25.59 41,10.66 88.6,23.58 105,28.5 16.6,4.98 97,24.86 180,44.5 83,19.64 163.4,39.3 180,44 16.5,4.68 48,13.45 70,19.5 21.82,6 65,17.59 95,25.5 30.11,7.94 98,24.37 150,36.31 124,28.47 160.96,41.88 157.59,57.19 -3.97,18 -479.64,492.96 -492.59,491.85 -5.43,-0.46 -26,-5.19 -45,-10.35"
         style="fill:#bccd33;fill-opacity:1;fill-rule:nonzero;stroke:none"
         id="path14"
         inkscape:connector-curvature="0" /><path
         d="m 8312.5,3473 c -9.73,-3.89 -12.5,-101 -12.5,-438 v -433 l 60,-63.5 c 33.07,-35 60.1,-67.09 60.23,-71.5 0.26,-9.5 -127.23,-3 -137.23,7 -3.28,3.28 -57.5,6 -119.5,6 H 8050 v 290 l -247.5,-2.5 -247.5,-2.5 -5,-150 -5,-150 -130,-2.5 c -72,-1.38 -136.69,-5.18 -145,-8.5 -8.25,-3.3 -33,-7.35 -55,-9 -22,-1.65 -76,-9.98 -120,-18.5 -44.19,-8.56 -127,-20.42 -185,-26.5 -58,-6.07 -134.09,-15.03 -170,-20 -35.88,-4.97 -121,-16.39 -190,-25.5 -69,-9.11 -132.84,-18.52 -142.5,-21 -16.14,-4.15 -17.7,12.5 -20,213.5 l -2.5,218 h -500 l -5,-249.5 -5,-249.5 -37,-8 c -20.37,-4.41 -99,-14.74 -175,-23 -76,-8.26 -146.98,-16.12 -158,-17.5 -17.67,-2.21 -20.64,4.5 -25.5,57.5 -3.02,33 -13.69,87 -23.7,120 -91.74,302.47 -316.8,395 -960.8,395 -224,0 -478.79,-18.29 -560,-40.21 -22,-5.93 -58,-15.31 -80,-20.84 -71,-17.85 -188.36,-82.27 -233.08,-127.95 -61.87,-63.18 -114.4,-174 -142.67,-301 -6.74,-30.25 -13.6,-145 -15.25,-255 l -3,-200 -33,-8 c -18.48,-4.48 -55,-14.6 -83,-23 -27.78,-8.33 -82,-19 -122,-24 -40,-5 -80,-13.45 -90,-19 -9.98,-5.55 -67,-19.36 -128,-31 -61,-11.64 -116.68,-23.67 -125,-27 -8,-3.2 -22,-6.91 -30,-7.96 -56,-7.3 -106.6,-18.06 -115,-24.44 -5.57,-4.23 -41,-13.14 -80,-20.1 -39,-6.96 -83.29,-18.48 -100,-26 -16.6,-7.47 -97,-27.57 -180,-45 -83,-17.43 -158.93,-34.97 -170,-39.28 -18.93,-7.36 -163,-40.69 -325,-75.18 -167,-35.56 -246,-54.19 -273,-64.39 -63,-23.78 -60.3,-36.65 -53.87,257.35 10.33,472 48.58,599.4 193.87,645.78 108.06,34.49 169,40.29 428,40.69 277,0.43 359.3,-9.96 433,-54.67 65.32,-39.62 94.14,-122.8 99.39,-286.8 l 3.61,-113 h 509 l -0.27,102 c -0.37,137 -29.5,340.44 -59.14,413 -37.57,92 -81.57,162.83 -126.59,203.82 -137.08,124.82 -344,171.18 -764,171.18 -209,0 -489.86,-18.91 -585,-39.39 -21.82,-4.7 -65,-14.06 -95,-20.61 -30,-6.55 -74.32,-20.64 -97.5,-31 -23,-10.28 -47.09,-19 -52.5,-19 -11.2,0 -65,-29.11 -131,-70.89 -25.38,-16.06 -65.46,-55.11 -89.42,-87.11 -71.63,-95.69 -98.8,-166 -149.16,-386 -21.92,-95.78 -31.77,-297 -28.62,-585 l 3.2,-293 -125,-42 c -69,-23.18 -140.68,-49.17 -160,-58 -19.156,-8.76 -78,-32.92 -130,-53.38 C 495,1051.51 292.254,945.73 226,893.844 148,832.758 110,777.777 110,726 110,674.508 126,650.848 187,612.141 307.664,535.574 533,497.422 942,484.309 l 228,-7.309 30.38,-53 c 33.82,-59 100.73,-122.902 154.62,-147.691 78,-35.871 103.11,-45.957 165,-66.282 286,-93.922 1054,-93.41 1340,0.891 186,61.332 275.13,149.023 329.4,324.082 14.26,46 24.2,61.594 42.6,66.828 35.91,10.219 164,28.172 201,28.172 30.45,0 32.88,-3 50.1,-62 47.29,-162 122.2,-261.402 238.9,-317.012 174.61,-83.211 373,-111.648 772,-110.664 460,1.133 743.63,54.481 874,164.387 47.96,40.434 102.11,130.289 132.75,220.289 20.63,60.602 32.57,125.5 44.25,240.5 8.84,87 13.82,163.32 11.13,170.5 -6.84,18.242 13.87,30.395 63.87,37.465 105,14.848 125.69,18.898 135,26.441 5.45,4.414 35,9.684 65,11.594 l 55,3.5 6.94,-115 C 5899.07,616 5965.55,417.406 6076,320.324 6213.08,199.828 6508,141 6975,141 c 299,0 516.18,22.82 653,68.617 207,69.285 301.65,160.996 366.77,355.383 45.74,136.559 48.56,189 54.54,1015 l 5.69,785 80,8 c 44.16,4.41 142.5,10.46 219.5,13.5 l 139.5,5.5 144,-146 c 78.91,-80 147.16,-146 151,-146 12.78,0 21,225 21,575 v 332 l -122.5,117 c -67,63.99 -176.87,170.69 -242.5,235.5 -66,65.18 -125.62,116.25 -132.5,113.5 z M 4679,2380.2 c 151,-23.08 197.28,-33.59 221,-50.17 33.06,-23.1 69.38,-92.03 76.42,-145.03 l 5.58,-42 -54,-5.96 c -60.12,-6.64 -169,-21.22 -273,-36.57 -93.01,-13.73 -286,-51.63 -465,-91.32 -80,-17.74 -160.69,-32.6 -180,-33.15 l -35,-1 1.71,102 c 2.37,142 34.28,212.83 114.29,253.71 82.78,42.29 439,72.27 588,49.49 z M 7547.5,1587.5 7544,845 7521.01,780 C 7475.41,651.09 7417,610.75 7248,591.457 7050,568.852 6650.51,581.328 6565,612.785 6507,634.125 6460.31,669.957 6440.93,708 6409.46,769.793 6390,889 6390,1020 v 121 l -47.5,-6.5 c -26,-3.56 -63.79,-10.62 -83.5,-15.6 -48.84,-12.35 -327,-58.38 -424,-70.18 -44,-5.34 -87.87,-13.99 -97.5,-19.22 -9.92,-5.38 -30.5,-9.5 -47.5,-9.5 -17,0 -30,-4.33 -30,-10 0,-5.55 -20,-10 -45,-10 -25,0 -52.55,-4.266 -62,-9.602 -17.37,-9.804 -377,-67.324 -483,-77.25 -30,-2.808 -59.32,-9.238 -64.5,-14.148 -5.18,-4.91 -24.5,-9 -42.5,-9 -18,0 -33,-4.547 -33,-10 0,-5.953 -41.5,-10.203 -102.5,-10.5 -56,-0.273 -127.45,-4.742 -157.5,-9.848 -73.54,-12.5 -330,-47.675 -408,-55.961 -35,-3.718 -65.22,-10.468 -68,-15.191 -2.77,-4.711 -38,-8.5 -79,-8.5 -41,0 -76.45,-3.789 -79.5,-8.5 -3,-4.637 -43,-11.91 -88,-16 -45,-4.09 -87.05,-10.227 -92.5,-13.5 -5.5,-3.301 -28,-6.898 -50,-8 -22,-1.102 -51.25,-4.926 -65,-8.5 -13.85,-3.602 -54,-8.73 -90,-11.5 -35.94,-2.766 -141,-11.48 -235,-19.5 -94,-8.02 -190.12,-14.793 -215,-15.152 -71,-1.028 -183.34,-9.883 -200,-15.758 -25.94,-9.156 -137,-14.977 -820,-42.969 -282,-11.555 -773.45,-5.937 -845,9.66 -22,4.793 -76,10.875 -120,13.516 -111,6.652 -257.203,34.406 -275,52.203 -13.266,13.266 -6.5,23.152 58.5,85.5 46,44.121 77.05,66.945 83,61 5.18,-5.184 12.23,-42 15.5,-81 3.44,-41 10.69,-71.91 17,-72.461 56,-4.902 185.82,5.801 208,17.149 19.11,9.773 65,13.812 157,13.812 73,0 132.63,4.164 136,9.5 3.28,5.199 -1.02,33.5 -9.5,62.5 -8.55,29.223 -19.76,101 -25,160 -5.24,59 -12.51,118.66 -16.21,133 -7.74,30 9.77,56.43 31.71,47.86 8.18,-3.2 25,-0.86 37,5.14 12.1,6.05 40,16.13 62,22.39 65,18.51 318.33,100.36 340,109.85 11,4.82 74,24.96 140,44.76 66,19.8 127.88,40.27 137.5,45.5 10,5.43 21.79,9.5 27.5,9.5 5.48,0 29,8.78 52,19.41 67,30.97 257.21,90.59 289,90.59 16,0 37.07,4.59 47,10.24 21.32,12.13 139,45.09 252,70.58 47,10.61 96.18,24.1 110,30.18 13.89,6.11 45,13 70,15.5 25,2.5 56.11,8.28 70,13 13.67,4.65 59,16.21 100,25.5 41,9.29 85.43,21.03 98,25.89 48,18.54 69.52,10.99 82.29,-28.89 77.19,-241.05 252.71,-314.16 869.71,-362.26 68.52,-5.34 186,-14.04 260,-19.26 155,-10.93 267.58,-27.87 275.66,-41.48 2.97,-5 13.34,-9 23.34,-9 21.68,0 69.71,-46 83.54,-80 9.75,-23.96 22.29,-79 33.96,-149 4.5,-27 9.41,-32.09 27,-28 11.79,2.742 82.5,12.68 156.5,22 74,9.32 144.04,20.84 155,25.5 10.97,4.66 48,11.43 82,15 34,3.57 65.97,11.47 70.8,17.5 9.75,12.19 -9.8,209 -26.03,262 -41.96,137 -133.65,243.4 -246.77,286.37 -146.99,55.83 -411,98.79 -700,113.92 -235,12.3 -472.52,42.8 -518,66.53 -24.21,12.64 -22,28.18 4,28.18 11.61,0 48.5,6.71 82.5,15 34.03,8.3 128.5,26.75 211.5,41.3 202,35.42 219.84,38.93 295,58.11 36,9.19 91.77,18.6 125,21.09 33,2.48 71.25,8.55 85,13.5 13.85,4.98 54,14.58 90,21.5 36,6.92 70.13,16.52 76.5,21.5 6.32,4.95 111.5,11.7 233.5,15 220,5.95 222.08,6.21 230.5,29 4.8,13 18.5,25.07 31.5,27.75 79,16.31 295.21,46.25 334,46.25 h 24 l 2.5,-512.5 2.5,-512.5 30,2.5 c 16.29,1.36 46,6.84 65,12 19.16,5.2 78,16.77 130,25.56 169,28.58 254.05,44.21 267,49.07 10.17,3.81 13.54,115.37 15.5,512.37 l 2.5,507.5 120,16.5 c 66,9.07 169.5,21.9 230,28.5 61,6.66 130.05,16.1 155,21.2 116.13,23.74 290,43.43 490,55.48 58,3.49 109.25,10.35 114.5,15.32 5.14,4.86 18,9 28,9 17.86,0 18.38,-25.5 15,-742.5 z M 5044.14,813 C 5029.34,690 4984.87,617.004 4910,592.809 4800.71,557.492 4573,543.789 4340,558.504 4131,571.707 4050.1,590.73 4010.44,636 c -43.88,50.098 -40.44,71.434 12.56,77.887 23,2.801 60.09,7.601 82,10.613 22,3.023 85,10 140,15.5 55,5.5 140.5,17.199 190,26 49.68,8.832 146,23.949 215,33.746 147,20.867 362.89,59.609 369.2,66.254 2.17,2.285 9.8,4 17.8,4 11.3,0 12.68,-11 7.14,-57"
         style="fill:#bccd33;fill-opacity:1;fill-rule:nonzero;stroke:none"
         id="path16"
         inkscape:connector-curvature="0" /><path
         d="m 9830,3248 c -36,-11.08 -89.54,-25.8 -120,-33 -30.46,-7.2 -84,-20.36 -120,-29.5 -35.9,-9.11 -112,-27.69 -170,-41.5 -58,-13.81 -134.09,-33.73 -170,-44.5 -35.78,-10.73 -138.5,-37.03 -228.5,-58.5 -90,-21.47 -167.1,-42.82 -171.5,-47.5 -4.41,-4.68 -10.7,-181.5 -14,-393.5 -3.3,-212 -8.7,-414.66 -12,-451 -4.82,-53 -3.05,-67.18 9,-72 8.22,-3.29 59.5,5.75 113.5,20 54,14.25 118.83,30.07 143.5,35 25,5 57.22,11.45 72.5,14.5 15,3 30,9.59 33,14.5 3,4.91 15.5,9 27.5,9 20.17,0 143,27.25 302,67 33,8.25 75.75,18.82 95,23.5 19.25,4.68 62,15.7 95,24.5 33,8.8 80.25,19.82 105,24.5 25,4.72 57.22,13.39 72.5,19.5 l 27.5,11 -2.5,461.5 c -1.61,297 -6.06,462.39 -12.5,464 -5.54,1.39 -39,-6.42 -75,-17.5"
         style="fill:#bccd33;fill-opacity:1;fill-rule:nonzero;stroke:none"
         id="path18"
         inkscape:connector-curvature="0" /><path
         d="m 2745.5,1087.5 c -1.94,-6.92 -5.95,-70.5 -9,-142.5 -3.05,-72 -10.63,-144.723 -17,-163 -6.27,-18 -9.23,-35.273 -6.52,-38 6.36,-6.379 510.02,16.043 517.02,23.02 2.74,2.734 6.36,78.98 8,168.98 l 3,164 h -246 c -188,0 -246.82,-2.95 -249.5,-12.5"
         style="fill:#bccd33;fill-opacity:1;fill-rule:nonzero;stroke:none"
         id="path20"
         inkscape:connector-curvature="0" /><path
         d="m 3454.5,986.5 c -3.04,-7.469 -4.16,-55.5 -2.5,-107.5 l 3,-94 h 60 c 32.97,0 101,3.145 151,6.98 293,22.477 273.62,19.563 279.5,42.02 3.07,11.699 1.96,52 -2.5,91 l -8,70 -237.5,2.5 c -191,2.012 -238.58,-0.145 -243,-11"
         style="fill:#bccd33;fill-opacity:1;fill-rule:nonzero;stroke:none"
         id="path22"
         inkscape:connector-curvature="0" /></g></g></svg>